HIERARCHY
ROOT Hips
{
	OFFSET	0.00	0.00	0.00
	CHANNELS 6 Xposition Yposition Zposition Zrotation Xrotation Yrotation
	JOINT LeftUpLeg
	{
		OFFSET	 0.126116	-0.014019	-0.065224
		CHANNELS 3 Zrotation Xrotation Yrotation
		JOINT LeftLeg
		{
			OFFSET	 0.000000	 0.000000	 0.569914
			CHANNELS 3 Zrotation Xrotation Yrotation
			JOINT LeftFoot
			{
				OFFSET	 0.000000	 0.000000	 0.544423
				CHANNELS 3 Zrotation Xrotation Yrotation
				JOINT LeftToeBase
				{
					OFFSET	 0.000000	 0.000000	 0.207117
					CHANNELS 3 Zrotation Xrotation Yrotation
					End Site
					{
						OFFSET	 0.000000	 0.000000	 0.207117
					}
				}
			}
		}
	}
	JOINT RightUpLeg
	{
		OFFSET	-0.124023	-0.008373	-0.065224
		CHANNELS 3 Zrotation Xrotation Yrotation
		JOINT RightLeg
		{
			OFFSET	 0.000000	 0.000000	 0.570047
			CHANNELS 3 Zrotation Xrotation Yrotation
			JOINT RightFoot
			{
				OFFSET	 0.000000	 0.000000	 0.544354
				CHANNELS 3 Zrotation Xrotation Yrotation
				JOINT RightToeBase
				{
					OFFSET	 0.000000	 0.000000	 0.207540
					CHANNELS 3 Zrotation Xrotation Yrotation
					End Site
					{
						OFFSET	 0.000000	 0.000000	 0.207540
					}
				}
			}
		}
	}
	JOINT Spine
	{
		OFFSET	 0.000184	-0.007763	 0.117403
		CHANNELS 3 Zrotation Xrotation Yrotation
		JOINT Spine1
		{
			OFFSET	 0.000000	 0.000000	 0.137269
			CHANNELS 3 Zrotation Xrotation Yrotation
			JOINT Spine2
			{
				OFFSET	 0.000000	 0.000000	 0.156879
				CHANNELS 3 Zrotation Xrotation Yrotation
				JOINT LeftShoulder
				{
					OFFSET	 0.080501	-0.002496	 0.160144
					CHANNELS 3 Zrotation Xrotation Yrotation
					JOINT LeftArm
					{
						OFFSET	 0.000000	 0.000000	 0.164363
						CHANNELS 3 Zrotation Xrotation Yrotation
						JOINT LeftForeArm
						{
							OFFSET	 0.000000	 0.000000	 0.364576
							CHANNELS 3 Zrotation Xrotation Yrotation
							JOINT LeftHand
							{
								OFFSET	 0.000000	 0.000000	 0.360812
								CHANNELS 3 Zrotation Xrotation Yrotation
								JOINT LeftHandIndex1
								{
									OFFSET	 0.000000	 0.000000	 0.086006
									CHANNELS 3 Zrotation Xrotation Yrotation
									JOINT LeftHandIndex2
									{
										OFFSET	 0.000000	 0.000000	 0.047236
										CHANNELS 3 Zrotation Xrotation Yrotation
										JOINT LeftHandIndex3
										{
											OFFSET	-0.004284	-0.000551	 0.038166
											CHANNELS 3 Zrotation Xrotation Yrotation
											End Site
											{
												OFFSET	-0.004284	-0.000551	 0.038166
											}
										}
									}
								}
							}
						}
					}
				}
				JOINT Neck
				{
					OFFSET	 0.000000	 0.000000	 0.176489
					CHANNELS 3 Zrotation Xrotation Yrotation
					JOINT Head
					{
						OFFSET	 0.000000	-0.001747	 0.077940
						CHANNELS 3 Zrotation Xrotation Yrotation
						End Site
						{
							OFFSET	 0.000000	-0.001747	 0.077940
						}
					}
				}
				JOINT RightShoulder
				{
					OFFSET	-0.080363	 0.000306	 0.159706
					CHANNELS 3 Zrotation Xrotation Yrotation
					JOINT RightArm
					{
						OFFSET	 0.000000	 0.000000	 0.164196
						CHANNELS 3 Zrotation Xrotation Yrotation
						JOINT RightForeArm
						{
							OFFSET	 0.000000	 0.000000	 0.365611
							CHANNELS 3 Zrotation Xrotation Yrotation
							JOINT RightHand
							{
								OFFSET	 0.000000	 0.000000	 0.360648
								CHANNELS 3 Zrotation Xrotation Yrotation
								JOINT RightHandIndex1
								{
									OFFSET	 0.000000	 0.000000	 0.069977
									CHANNELS 3 Zrotation Xrotation Yrotation
									JOINT RightHandIndex2
									{
										OFFSET	 0.000000	 0.000000	 0.052305
										CHANNELS 3 Zrotation Xrotation Yrotation
										JOINT RightHandIndex3
										{
											OFFSET	 0.009002	-0.000782	 0.042196
											CHANNELS 3 Zrotation Xrotation Yrotation
											End Site
											{
												OFFSET	 0.009002	-0.000782	 0.042196
											}
										}
									}
								}
							}
						}
					}
				}
			}
		}
	}
}
MOTION
Frames:    4
Frame Time: 0.03333334
-0.058243	-2.226210	 1.202757	 4.070999	-1.861414	-3.721912	-5.900742	-13.100660	-169.811300	 0.287071	-38.138360	-0.031794	 44.904450	 79.852870	-48.246600	-2.371397	 31.276730	-0.062284	 4.363268	-28.032330	-174.918600	 10.259800	-53.509580	 8.886649	 13.989720	 70.695040	-9.903624	 2.357823	 33.167900	 0.107134	 2.337409	 8.729219	 0.940868	 1.897613	 4.194139	 3.337829	-9.246729	-3.753352	-4.510615	-93.761990	 58.860420	 175.776600	 23.885410	 44.840630	-28.522660	-0.475476	-1.678921	-13.649740	-1.104244	-21.220400	-6.230891	-4.869486	 19.239790	-2.786436	-3.891024	 21.351050	 2.212404	-4.808240	 5.545738	 0.146954	-0.128102	-5.012817	 0.157548	-11.224500	 1.129151	 2.096150	 89.834330	 61.579150	-179.875800	-20.022790	 51.380800	 8.239281	-1.137436	-3.119741	 16.382520	-4.692956	-7.334151	 0.778418	 6.304918	 26.038150	-0.578634	 1.721689	 45.991100	-6.846563	 0.340250	 25.086200	 3.663620
-0.058769	-2.237055	 1.202634	 4.694775	-1.567434	-3.705562	-6.428144	-12.865070	-169.845700	 0.785805	-38.001820	 0.219470	 45.129300	 79.919540	-48.815570	-2.370308	 31.462620	-0.066479	 3.013259	-29.034330	-174.707000	 10.687850	-52.298670	 9.101103	 20.241240	 74.851060	-16.954550	 2.358460	 33.075100	 0.104965	 1.906627	 8.625630	 0.847864	 1.915908	 3.824832	 3.438478	-9.397375	-3.544593	-4.510236	-93.877330	 58.952180	 175.520000	 24.167250	 44.127070	-28.976080	-1.121450	-1.619581	-14.531180	-1.042107	-21.216220	-7.314471	-4.869205	 19.245520	-2.786504	-3.886422	 21.410100	 2.207726	-4.808264	 5.545496	 0.146969	-0.093681	-5.053916	 0.175083	-11.271410	 1.191581	 1.956371	 89.798130	 61.625100	-179.961800	-19.679550	 51.655010	 7.578399	-1.325764	-3.155214	 16.275430	-4.750564	-6.822494	 0.643721	 6.297405	 25.249860	-0.553124	 1.833461	 45.117840	-6.946677	 0.471776	 24.514730	 3.595980
-0.059264	-2.247644	 1.202376	 5.214464	-1.286407	-3.701278	-7.033214	-12.647510	-169.910100	 1.026213	-37.873360	 0.413487	 45.464960	 80.025500	-49.413650	-2.369396	 31.616020	-0.069947	 1.890564	-29.989150	-174.518800	 11.020230	-51.058800	 9.212001	 28.904620	 77.786740	-26.370980	 2.358915	 33.008170	 0.103413	 1.549412	 8.509366	 0.767424	 1.922601	 3.531821	 3.532131	-9.517438	-3.378680	-4.513110	-93.978580	 59.016650	 175.295700	 24.304550	 43.448540	-29.276980	-1.584243	-1.605453	-15.522270	-0.972302	-21.201990	-8.145074	-4.868338	 19.267760	-2.787960	-3.882006	 21.466700	 2.203242	-4.807759	 5.551447	 0.146621	-0.065348	-5.085706	 0.193495	-11.306440	 1.247535	 1.848132	 89.764840	 61.666900	 179.958900	-19.385030	 51.902840	 6.944124	-1.517872	-3.202444	 16.222920	-4.828025	-6.372616	 0.519855	 6.290287	 24.547280	-0.537673	 1.927127	 44.361970	-7.030184	 0.594723	 23.975090	 3.533723
-0.059758	-2.259178	 1.201967	 5.670821	-0.875464	-3.724854	-7.498763	-12.489840	-169.950700	 1.199590	-37.730880	 0.518265	 45.770490	 80.137790	-49.857590	-2.368614	 31.744740	-0.072867	 0.710476	-31.147570	-174.330100	 11.495250	-49.582250	 9.388727	 41.033400	 79.997890	-39.338600	 2.358991	 32.996130	 0.103134	 1.282698	 8.265444	 0.676861	 1.916895	 3.274328	 3.680601	-9.633408	-3.238729	-4.549708	-94.092860	 59.018610	 175.051700	 24.230760	 42.728210	-29.388170	-1.778587	-1.678027	-16.725590	-0.670118	-21.277010	-8.565055	-4.864711	 19.366260	-2.795601	-3.875483	 21.550040	 2.196609	-4.804964	 5.584397	 0.144691	-0.042086	-5.102688	 0.226828	-11.354500	 1.307295	 1.785587	 89.721320	 61.719530	 179.854700	-19.090620	 52.160030	 6.254456	-1.853972	-3.298986	 16.198980	-5.033544	-5.924769	 0.357604	 6.278680	 23.720220	-0.549261	 2.022657	 43.567380	-7.114984	 0.766502	 23.212380	 3.448336
